<mxfile host="65bd71144e">
    <diagram id="txsPoS4Ay9zSqUKMiFD1" name="第 1 页">
        <mxGraphModel dx="1241" dy="267" grid="1" gridSize="10" guides="1" tooltips="1" connect="1" arrows="1" fold="1" page="1" pageScale="1" pageWidth="827" pageHeight="1169" background="#FFFFFF" math="0" shadow="0">
            <root>
                <mxCell id="0"/>
                <mxCell id="1" parent="0"/>
                <mxCell id="2" value="" style="shape=image;verticalLabelPosition=bottom;labelBackgroundColor=default;verticalAlign=top;aspect=fixed;imageAspect=0;image=data:image/png,iVBORw0KGgoAAAANSUhEUgAAAAkAAAAJAQMAAADaX5RTAAAABlBMVEV7mr3///+wksspAAAAAnRSTlP/AOW3MEoAAAAdSURBVAgdY9jXwCDDwNDRwHCwgeExmASygSL7GgB12QiqNHZZIwAAAABJRU5ErkJggg==;" parent="1" vertex="1">
                    <mxGeometry width="9" height="9" as="geometry"/>
                </mxCell>
                <mxCell id="3" value="&lt;font color=&quot;#000000&quot;&gt;RX&lt;br&gt;Queue&lt;br&gt;&lt;/font&gt;" style="rounded=0;whiteSpace=wrap;html=1;fillColor=#ffe6cc;strokeColor=#d79b00;fontStyle=1" parent="1" vertex="1">
                    <mxGeometry x="200" y="320" width="40" height="40" as="geometry"/>
                </mxCell>
                <mxCell id="4" value="&lt;font color=&quot;#000000&quot;&gt;2-Decode&lt;/font&gt;" style="rounded=0;whiteSpace=wrap;html=1;fillColor=#ffe6cc;strokeColor=#d79b00;" parent="1" vertex="1">
                    <mxGeometry x="330" y="200" width="50" height="80" as="geometry"/>
                </mxCell>
                <mxCell id="5" value="" style="endArrow=classic;startArrow=classic;html=1;fontColor=#000000;entryX=0;entryY=0.5;entryDx=0;entryDy=0;strokeColor=#000000;" parent="1" target="4" edge="1">
                    <mxGeometry width="50" height="50" relative="1" as="geometry">
                        <mxPoint x="240" y="240" as="sourcePoint"/>
                        <mxPoint x="340" y="220" as="targetPoint"/>
                    </mxGeometry>
                </mxCell>
                <mxCell id="6" value="rx_data[5:0]&lt;br&gt;rx_valid" style="text;html=1;strokeColor=none;fillColor=none;align=center;verticalAlign=middle;whiteSpace=wrap;rounded=0;fontColor=#000000;" parent="1" vertex="1">
                    <mxGeometry x="261" y="208" width="60" height="30" as="geometry"/>
                </mxCell>
                <mxCell id="24" value="Queue" style="rounded=0;whiteSpace=wrap;html=1;fillColor=#dae8fc;strokeColor=#6c8ebf;fontStyle=1;fontColor=#000000;" parent="1" vertex="1">
                    <mxGeometry x="220" y="120" width="60" height="20" as="geometry"/>
                </mxCell>
                <mxCell id="26" value="" style="endArrow=classic;html=1;fontColor=#000000;strokeColor=#000000;exitX=1;exitY=0.5;exitDx=0;exitDy=0;" parent="1" source="24" edge="1">
                    <mxGeometry width="50" height="50" relative="1" as="geometry">
                        <mxPoint x="300" y="160" as="sourcePoint"/>
                        <mxPoint x="350" y="130" as="targetPoint"/>
                    </mxGeometry>
                </mxCell>
                <mxCell id="27" value="&quot;\n&quot;" style="text;html=1;align=center;verticalAlign=middle;resizable=0;points=[];autosize=1;strokeColor=none;fillColor=none;fontColor=#000000;" parent="1" vertex="1">
                    <mxGeometry x="290" y="105" width="40" height="30" as="geometry"/>
                </mxCell>
                <mxCell id="28" value="将一行发送给译码器" style="text;html=1;align=center;verticalAlign=middle;resizable=0;points=[];autosize=1;strokeColor=none;fillColor=none;fontColor=#000000;" parent="1" vertex="1">
                    <mxGeometry x="245" y="140" width="130" height="30" as="geometry"/>
                </mxCell>
                <mxCell id="29" value="Decoder" style="rounded=0;whiteSpace=wrap;html=1;fillColor=#dae8fc;strokeColor=#6c8ebf;fontStyle=1;fontColor=#000000;" parent="1" vertex="1">
                    <mxGeometry x="350" y="120" width="60" height="20" as="geometry"/>
                </mxCell>
                <mxCell id="30" value="ASCII --&amp;gt; 64 种符号&lt;br&gt;A ~ Z&lt;br&gt;0 ~ 9&lt;br&gt;space, endl&lt;br&gt;" style="text;html=1;strokeColor=none;fillColor=none;align=center;verticalAlign=middle;whiteSpace=wrap;rounded=0;fontColor=#000000;" parent="1" vertex="1">
                    <mxGeometry x="80" y="75" width="110" height="25" as="geometry"/>
                </mxCell>
                <mxCell id="31" value="&lt;font color=&quot;#000000&quot;&gt;Decode&lt;/font&gt;" style="rounded=0;whiteSpace=wrap;html=1;fillColor=#d5e8d4;strokeColor=#82b366;fontStyle=1" parent="1" vertex="1">
                    <mxGeometry x="280" y="640" width="40" height="30" as="geometry"/>
                </mxCell>
                <mxCell id="32" value="WI 30000000 1222 ;" style="text;html=1;align=center;verticalAlign=middle;resizable=0;points=[];autosize=1;strokeColor=none;fillColor=none;fontColor=#000000;" parent="1" vertex="1">
                    <mxGeometry x="60" y="135" width="130" height="30" as="geometry"/>
                </mxCell>
                <mxCell id="33" value="&lt;font color=&quot;#000000&quot;&gt;Receive&lt;br&gt;Queue&lt;br&gt;&lt;/font&gt;" style="rounded=0;whiteSpace=wrap;html=1;fillColor=#d5e8d4;strokeColor=#82b366;" parent="1" vertex="1">
                    <mxGeometry x="190" y="210" width="50" height="60" as="geometry"/>
                </mxCell>
                <mxCell id="38" value="&lt;font color=&quot;#000000&quot;&gt;IMem&lt;br&gt;&lt;/font&gt;" style="rounded=0;whiteSpace=wrap;html=1;fillColor=#e1d5e7;strokeColor=#9673a6;fontStyle=1" parent="1" vertex="1">
                    <mxGeometry x="210" y="540" width="40" height="30" as="geometry"/>
                </mxCell>
                <mxCell id="39" value="" style="endArrow=classic;html=1;strokeColor=#000000;fontColor=#000000;exitX=1;exitY=0.5;exitDx=0;exitDy=0;rounded=0;entryX=0;entryY=0.5;entryDx=0;entryDy=0;" parent="1" source="38" target="31" edge="1">
                    <mxGeometry width="50" height="50" relative="1" as="geometry">
                        <mxPoint x="265" y="410" as="sourcePoint"/>
                        <mxPoint x="315" y="360" as="targetPoint"/>
                        <Array as="points">
                            <mxPoint x="260" y="555"/>
                            <mxPoint x="260" y="655"/>
                        </Array>
                    </mxGeometry>
                </mxCell>
                <mxCell id="40" value="&lt;font color=&quot;#000000&quot;&gt;RF&lt;/font&gt;" style="rounded=0;whiteSpace=wrap;html=1;fillColor=#dae8fc;strokeColor=#6c8ebf;fontStyle=1" parent="1" vertex="1">
                    <mxGeometry x="340" y="600" width="30" height="40" as="geometry"/>
                </mxCell>
                <mxCell id="42" value="&lt;font color=&quot;#000000&quot;&gt;ADD&lt;/font&gt;" style="rounded=0;whiteSpace=wrap;html=1;fillColor=#d5e8d4;strokeColor=#82b366;fontStyle=1" parent="1" vertex="1">
                    <mxGeometry x="399.29" y="600" width="50" height="40" as="geometry"/>
                </mxCell>
                <mxCell id="43" value="&lt;font color=&quot;#000000&quot;&gt;DMem&lt;br&gt;&lt;/font&gt;" style="rounded=0;whiteSpace=wrap;html=1;fillColor=#e1d5e7;strokeColor=#9673a6;fontStyle=1" parent="1" vertex="1">
                    <mxGeometry x="440" y="360" width="40" height="40" as="geometry"/>
                </mxCell>
                <mxCell id="44" value="&lt;font color=&quot;#000000&quot;&gt;CPU&lt;br&gt;MEM &amp;amp; RF&lt;br&gt;&lt;/font&gt;" style="rounded=0;whiteSpace=wrap;html=1;fillColor=#ffe6cc;strokeColor=#d79b00;fontStyle=1" parent="1" vertex="1">
                    <mxGeometry x="265" y="320" width="90" height="40" as="geometry"/>
                </mxCell>
                <mxCell id="45" value="&lt;font color=&quot;#000000&quot;&gt;TX&lt;br&gt;Queue&lt;br&gt;&lt;/font&gt;" style="rounded=0;whiteSpace=wrap;html=1;fillColor=#ffe6cc;strokeColor=#d79b00;fontStyle=1" parent="1" vertex="1">
                    <mxGeometry x="140" y="320" width="40" height="40" as="geometry"/>
                </mxCell>
                <mxCell id="46" value="" style="endArrow=classic;html=1;strokeColor=#000000;fontColor=#000000;exitX=1;exitY=0.5;exitDx=0;exitDy=0;rounded=0;entryX=0.75;entryY=1;entryDx=0;entryDy=0;" parent="1" source="42" target="74" edge="1">
                    <mxGeometry width="50" height="50" relative="1" as="geometry">
                        <mxPoint x="450.29" y="600" as="sourcePoint"/>
                        <mxPoint x="455.29" y="670" as="targetPoint"/>
                        <Array as="points">
                            <mxPoint x="455.29" y="625"/>
                            <mxPoint x="455.29" y="640"/>
                            <mxPoint x="470.29" y="640"/>
                        </Array>
                    </mxGeometry>
                </mxCell>
                <mxCell id="51" value="&lt;font color=&quot;#000000&quot;&gt;PC&lt;/font&gt;" style="rounded=0;whiteSpace=wrap;html=1;fillColor=#dae8fc;strokeColor=#6c8ebf;fontStyle=1" parent="1" vertex="1">
                    <mxGeometry x="130" y="640" width="30" height="30" as="geometry"/>
                </mxCell>
                <mxCell id="52" value="&lt;font color=&quot;#000000&quot;&gt;ADD&lt;br&gt;4&lt;br&gt;&lt;/font&gt;" style="rounded=0;whiteSpace=wrap;html=1;fillColor=#d5e8d4;strokeColor=#82b366;fontStyle=1" parent="1" vertex="1">
                    <mxGeometry x="10" y="620" width="30" height="30" as="geometry"/>
                </mxCell>
                <mxCell id="56" value="&lt;font color=&quot;#000000&quot;&gt;Branch&lt;/font&gt;" style="rounded=0;whiteSpace=wrap;html=1;fillColor=#d5e8d4;strokeColor=#82b366;fontStyle=1" parent="1" vertex="1">
                    <mxGeometry x="399.29" y="650" width="50" height="40" as="geometry"/>
                </mxCell>
                <mxCell id="57" value="MUX" style="shape=trapezoid;perimeter=trapezoidPerimeter;whiteSpace=wrap;html=1;fixedSize=1;fillColor=#fad7ac;strokeColor=#b46504;fontColor=#000000;fontStyle=1;rotation=90;" parent="1" vertex="1">
                    <mxGeometry x="54.22" y="640" width="61.55" height="30" as="geometry"/>
                </mxCell>
                <mxCell id="60" value="" style="endArrow=classic;html=1;strokeColor=#000000;fontColor=#000000;exitX=1;exitY=0.5;exitDx=0;exitDy=0;" parent="1" source="52" edge="1">
                    <mxGeometry width="50" height="50" relative="1" as="geometry">
                        <mxPoint x="40" y="640" as="sourcePoint"/>
                        <mxPoint x="70" y="635" as="targetPoint"/>
                    </mxGeometry>
                </mxCell>
                <mxCell id="63" value="" style="endArrow=classic;html=1;strokeColor=#000000;fontColor=#000000;exitX=1;exitY=0.5;exitDx=0;exitDy=0;" parent="1" edge="1">
                    <mxGeometry width="50" height="50" relative="1" as="geometry">
                        <mxPoint x="100" y="655" as="sourcePoint"/>
                        <mxPoint x="130" y="655" as="targetPoint"/>
                    </mxGeometry>
                </mxCell>
                <mxCell id="66" value="" style="endArrow=classic;html=1;strokeColor=#000000;fontColor=#000000;entryX=0;entryY=0.5;entryDx=0;entryDy=0;rounded=0;exitDx=0;exitDy=0;startArrow=none;" parent="1" source="79" target="38" edge="1">
                    <mxGeometry width="50" height="50" relative="1" as="geometry">
                        <mxPoint x="220" y="520" as="sourcePoint"/>
                        <mxPoint x="240" y="540" as="targetPoint"/>
                        <Array as="points">
                            <mxPoint x="190" y="555"/>
                        </Array>
                    </mxGeometry>
                </mxCell>
                <mxCell id="67" value="" style="endArrow=classic;html=1;strokeColor=#000000;fontColor=#000000;rounded=0;entryX=0;entryY=0.5;entryDx=0;entryDy=0;" parent="1" target="40" edge="1">
                    <mxGeometry width="50" height="50" relative="1" as="geometry">
                        <mxPoint x="260" y="620" as="sourcePoint"/>
                        <mxPoint x="270" y="510" as="targetPoint"/>
                    </mxGeometry>
                </mxCell>
                <mxCell id="68" value="" style="endArrow=classic;html=1;strokeColor=#000000;fontColor=#000000;exitX=1;exitY=0.5;exitDx=0;exitDy=0;rounded=0;entryX=0;entryY=0.5;entryDx=0;entryDy=0;" parent="1" source="40" target="42" edge="1">
                    <mxGeometry width="50" height="50" relative="1" as="geometry">
                        <mxPoint x="400" y="555" as="sourcePoint"/>
                        <mxPoint x="390" y="620" as="targetPoint"/>
                    </mxGeometry>
                </mxCell>
                <mxCell id="69" value="" style="endArrow=classic;html=1;strokeColor=#000000;fontColor=#000000;rounded=0;entryX=0;entryY=0.5;entryDx=0;entryDy=0;" parent="1" target="56" edge="1">
                    <mxGeometry width="50" height="50" relative="1" as="geometry">
                        <mxPoint x="380" y="620" as="sourcePoint"/>
                        <mxPoint x="385.29" y="660" as="targetPoint"/>
                        <Array as="points">
                            <mxPoint x="380" y="670"/>
                        </Array>
                    </mxGeometry>
                </mxCell>
                <mxCell id="70" value="" style="endArrow=classic;html=1;strokeColor=#000000;fontColor=#000000;rounded=0;entryX=0.75;entryY=1;entryDx=0;entryDy=0;" parent="1" target="57" edge="1">
                    <mxGeometry width="50" height="50" relative="1" as="geometry">
                        <mxPoint x="410" y="490" as="sourcePoint"/>
                        <mxPoint x="440" y="500" as="targetPoint"/>
                        <Array as="points">
                            <mxPoint x="410" y="440"/>
                            <mxPoint x="-20" y="440"/>
                            <mxPoint x="-20" y="535"/>
                            <mxPoint x="-20" y="670"/>
                        </Array>
                    </mxGeometry>
                </mxCell>
                <mxCell id="72" value="" style="endArrow=classic;html=1;strokeColor=#000000;fontColor=#000000;rounded=0;entryX=0;entryY=0.5;entryDx=0;entryDy=0;" parent="1" target="43" edge="1">
                    <mxGeometry width="50" height="50" relative="1" as="geometry">
                        <mxPoint x="410" y="440" as="sourcePoint"/>
                        <mxPoint x="435" y="484.76" as="targetPoint"/>
                        <Array as="points">
                            <mxPoint x="410" y="380"/>
                        </Array>
                    </mxGeometry>
                </mxCell>
                <mxCell id="73" value="" style="endArrow=classic;html=1;strokeColor=#000000;fontColor=#000000;rounded=0;exitX=0.5;exitY=1;exitDx=0;exitDy=0;entryX=0.196;entryY=0.976;entryDx=0;entryDy=0;entryPerimeter=0;" parent="1" source="43" target="74" edge="1">
                    <mxGeometry width="50" height="50" relative="1" as="geometry">
                        <mxPoint x="420" y="450" as="sourcePoint"/>
                        <mxPoint x="460" y="480" as="targetPoint"/>
                        <Array as="points">
                            <mxPoint x="460" y="450"/>
                        </Array>
                    </mxGeometry>
                </mxCell>
                <mxCell id="74" value="MUX" style="shape=trapezoid;perimeter=trapezoidPerimeter;whiteSpace=wrap;html=1;fixedSize=1;fillColor=#fad7ac;strokeColor=#b46504;fontColor=#000000;fontStyle=1;rotation=-180;" parent="1" vertex="1">
                    <mxGeometry x="455.29" y="680" width="61.55" height="30" as="geometry"/>
                </mxCell>
                <mxCell id="75" value="" style="endArrow=classic;html=1;strokeColor=#000000;fontColor=#000000;exitX=0.5;exitY=0;exitDx=0;exitDy=0;rounded=0;" parent="1" source="74" edge="1">
                    <mxGeometry width="50" height="50" relative="1" as="geometry">
                        <mxPoint x="355" y="680" as="sourcePoint"/>
                        <mxPoint x="355" y="640" as="targetPoint"/>
                        <Array as="points">
                            <mxPoint x="485.29" y="730"/>
                            <mxPoint x="355.29" y="730"/>
                        </Array>
                    </mxGeometry>
                </mxCell>
                <mxCell id="76" value="" style="endArrow=classic;html=1;strokeColor=#000000;entryX=0.5;entryY=0;entryDx=0;entryDy=0;" parent="1" target="51" edge="1">
                    <mxGeometry width="50" height="50" relative="1" as="geometry">
                        <mxPoint x="145" y="610" as="sourcePoint"/>
                        <mxPoint x="140" y="620" as="targetPoint"/>
                    </mxGeometry>
                </mxCell>
                <mxCell id="77" value="&lt;font color=&quot;#000000&quot;&gt;Init&lt;/font&gt;" style="text;html=1;align=center;verticalAlign=middle;resizable=0;points=[];autosize=1;strokeColor=none;fillColor=none;" parent="1" vertex="1">
                    <mxGeometry x="125" y="590" width="40" height="30" as="geometry"/>
                </mxCell>
                <mxCell id="78" value="" style="endArrow=classic;html=1;strokeColor=#000000;fontColor=#000000;rounded=0;entryX=0.5;entryY=0;entryDx=0;entryDy=0;" parent="1" target="52" edge="1">
                    <mxGeometry width="50" height="50" relative="1" as="geometry">
                        <mxPoint x="190" y="560" as="sourcePoint"/>
                        <mxPoint x="360" y="534.9999999999999" as="targetPoint"/>
                        <Array as="points">
                            <mxPoint x="25" y="560"/>
                        </Array>
                    </mxGeometry>
                </mxCell>
                <mxCell id="80" value="" style="endArrow=none;html=1;strokeColor=#000000;fontColor=#000000;entryDx=0;entryDy=0;rounded=0;exitX=1;exitY=0.5;exitDx=0;exitDy=0;" parent="1" source="51" target="79" edge="1">
                    <mxGeometry width="50" height="50" relative="1" as="geometry">
                        <mxPoint x="160" y="654.9999999999999" as="sourcePoint"/>
                        <mxPoint x="210" y="554.9999999999999" as="targetPoint"/>
                        <Array as="points">
                            <mxPoint x="190" y="655"/>
                        </Array>
                    </mxGeometry>
                </mxCell>
                <mxCell id="79" value="" style="shape=waypoint;sketch=0;size=6;pointerEvents=1;points=[];fillColor=none;resizable=0;rotatable=0;perimeter=centerPerimeter;snapToPoint=1;fontColor=#000000;strokeColor=#000000;" parent="1" vertex="1">
                    <mxGeometry x="180" y="550" width="20" height="20" as="geometry"/>
                </mxCell>
                <mxCell id="88" style="edgeStyle=none;html=1;exitX=1;exitY=0.5;exitDx=0;exitDy=0;entryX=0.25;entryY=1;entryDx=0;entryDy=0;rounded=0;" edge="1" parent="1" source="81" target="84">
                    <mxGeometry relative="1" as="geometry">
                        <Array as="points">
                            <mxPoint x="140" y="780"/>
                            <mxPoint x="140" y="820"/>
                            <mxPoint y="820"/>
                            <mxPoint y="843"/>
                        </Array>
                    </mxGeometry>
                </mxCell>
                <mxCell id="81" value="&lt;font color=&quot;#000000&quot;&gt;q_i&lt;/font&gt;" style="rounded=0;whiteSpace=wrap;html=1;fillColor=#dae8fc;strokeColor=#6c8ebf;fontStyle=1" parent="1" vertex="1">
                    <mxGeometry x="80" y="760" width="40" height="40" as="geometry"/>
                </mxCell>
                <mxCell id="82" value="&lt;font color=&quot;#000000&quot;&gt;PC&lt;/font&gt;" style="rounded=0;whiteSpace=wrap;html=1;fillColor=#dae8fc;strokeColor=#6c8ebf;fontStyle=1" parent="1" vertex="1">
                    <mxGeometry x="150" y="660" width="30" height="30" as="geometry"/>
                </mxCell>
                <mxCell id="93" style="edgeStyle=none;rounded=0;html=1;exitX=1;exitY=0.5;exitDx=0;exitDy=0;entryX=0.25;entryY=1;entryDx=0;entryDy=0;" edge="1" parent="1" source="83" target="91">
                    <mxGeometry relative="1" as="geometry">
                        <Array as="points">
                            <mxPoint x="140" y="860"/>
                            <mxPoint x="140" y="900"/>
                            <mxPoint y="900"/>
                            <mxPoint y="930"/>
                        </Array>
                    </mxGeometry>
                </mxCell>
                <mxCell id="83" value="&lt;font color=&quot;#000000&quot;&gt;q_i+1&lt;/font&gt;" style="rounded=0;whiteSpace=wrap;html=1;fillColor=#dae8fc;strokeColor=#6c8ebf;fontStyle=1" parent="1" vertex="1">
                    <mxGeometry x="80" y="840" width="40" height="40" as="geometry"/>
                </mxCell>
                <mxCell id="85" style="edgeStyle=none;html=1;exitX=0.5;exitY=0;exitDx=0;exitDy=0;entryX=0;entryY=0.5;entryDx=0;entryDy=0;" parent="1" source="84" target="83" edge="1">
                    <mxGeometry relative="1" as="geometry"/>
                </mxCell>
                <mxCell id="84" value="MUX" style="shape=trapezoid;perimeter=trapezoidPerimeter;whiteSpace=wrap;html=1;fixedSize=1;fillColor=#fad7ac;strokeColor=#b46504;fontColor=#000000;fontStyle=1;rotation=90;" parent="1" vertex="1">
                    <mxGeometry x="11.000000000000004" y="845" width="68.14" height="30" as="geometry"/>
                </mxCell>
                <mxCell id="90" value="enqueue_data" style="text;html=1;align=center;verticalAlign=middle;resizable=0;points=[];autosize=1;strokeColor=none;fillColor=none;" vertex="1" parent="1">
                    <mxGeometry x="-160" y="845" width="100" height="30" as="geometry"/>
                </mxCell>
                <mxCell id="91" value="MUX" style="shape=trapezoid;perimeter=trapezoidPerimeter;whiteSpace=wrap;html=1;fixedSize=1;fillColor=#fad7ac;strokeColor=#b46504;fontColor=#000000;fontStyle=0;rotation=90;" vertex="1" parent="1">
                    <mxGeometry x="13.449999999999996" y="930" width="61.55" height="30" as="geometry"/>
                </mxCell>
                <mxCell id="92" value="&lt;font color=&quot;#000000&quot;&gt;q_i+2&lt;/font&gt;" style="rounded=0;whiteSpace=wrap;html=1;fillColor=#dae8fc;strokeColor=#6c8ebf;fontStyle=1" vertex="1" parent="1">
                    <mxGeometry x="80" y="925" width="40" height="40" as="geometry"/>
                </mxCell>
                <mxCell id="95" value="" style="endArrow=classic;html=1;rounded=0;" edge="1" parent="1">
                    <mxGeometry width="50" height="50" relative="1" as="geometry">
                        <mxPoint y="900" as="sourcePoint"/>
                        <mxPoint x="30" y="880" as="targetPoint"/>
                        <Array as="points">
                            <mxPoint y="880"/>
                        </Array>
                    </mxGeometry>
                </mxCell>
                <mxCell id="96" value="" style="endArrow=classic;html=1;rounded=0;" edge="1" parent="1">
                    <mxGeometry width="50" height="50" relative="1" as="geometry">
                        <mxPoint x="-60" y="860" as="sourcePoint"/>
                        <mxPoint x="30" y="860" as="targetPoint"/>
                    </mxGeometry>
                </mxCell>
                <mxCell id="97" value="" style="shape=waypoint;sketch=0;size=6;pointerEvents=1;points=[];fillColor=none;resizable=0;rotatable=0;perimeter=centerPerimeter;snapToPoint=1;" vertex="1" parent="1">
                    <mxGeometry x="-10" y="890" width="20" height="20" as="geometry"/>
                </mxCell>
            </root>
        </mxGraphModel>
    </diagram>
</mxfile>